<svg width="226" height="368" viewBox="0 0 226 368" fill="none" xmlns="http://www.w3.org/2000/svg">
<path d="M99.5139 9.30984C136.964 -10.004 177.064 7.50762 177.166 7.55215C155.191 25.131 158.268 37.0689 158.268 37.0689C168.349 14.7852 186.986 11.0868 187.083 11.0675C211.065 25.1307 213.645 43.1512 213.645 43.1512C177.605 41.8339 163.538 66.4446 163.538 66.4446C25.9614 55.5596 39.1646 183.863 39.1646 183.863C6.20238 208.551 33.0122 252.349 33.0122 252.349C72.7188 334.827 25.5397 367.5 25.5397 367.5C65.4709 303.874 15.5888 247.328 15.4319 247.15C52.8853 340.37 22.9027 356.952 22.9027 356.952C46.1956 327.505 2.68575 250.155 2.68542 213.551C2.68542 177.012 17.5765 159.678 17.6288 159.618C5.34008 167.955 3.56968 175.858 3.5647 175.88C-1.70218 142.519 27.2256 129.295 27.2982 129.262C5.08639 132.279 1.44956 143.013 0.986694 144.847C5.40938 125.219 27.2982 112.267 27.2982 112.267C16.7504 111.503 5.76245 123.108 5.76245 123.108C18.9477 89.6748 53.6678 93.3133 53.6678 93.3133C32.1757 83.7246 16.3744 91.286 16.3112 91.3163C31.6896 37.5347 77.3735 14.5973 77.4005 14.5838C63.8067 44.4395 86.5254 52.7827 86.629 52.8206C71.9727 32.5154 89.266 10.6283 89.266 10.6283C78.3013 34.3122 99.4247 40.4899 99.5139 40.5159C90.0056 20.3423 99.4713 9.35912 99.5139 9.30984Z" fill="black"/>
<path fill-rule="evenodd" clip-rule="evenodd" d="M41.6938 197.337C41.6606 197.076 24.3514 60.3006 160.466 69.5208L165.149 71.3417L154.992 89.7047L160.853 108.85C195.818 130.728 197.967 152.849 197.821 154.461C197.675 156.071 194.89 162.519 194.89 162.519C194.891 162.531 197.821 185.079 201.629 189.623C205.417 194.138 205.728 198.073 205.732 198.118C203.977 206.889 215.497 234.726 215.546 234.845C216.436 236.618 215.809 237.575 215.102 238.069C214.569 238.447 213.391 237.943 213.098 237.553C207.803 230.527 203.242 206.325 203.242 206.325C199.533 203.981 181.405 200.863 181.363 200.855L174.917 210.426C181.168 234.648 204.856 228.579 204.856 228.579C196.956 288.654 224.981 321.246 225.071 321.352C224.918 321.254 144.19 269.924 128.502 263.778C112.8 257.625 120.911 227.74 111.682 223.343C102.452 218.951 96.5845 221.779 94.2408 223.905C91.8966 226.03 84.5708 239.433 98.9286 249.689C113.287 259.944 79.0051 267.565 73.4365 263.752C73.5 263.628 85.4057 240.25 69.041 217.165C68.9794 217.078 55.2797 197.768 59.3724 171.748C59.3724 171.748 54.1951 175.851 55.1726 195.58L41.6938 197.337ZM202.181 279.772C202.686 304.776 217.307 313.177 217.307 313.177C205.976 299.503 202.181 279.772 202.181 279.772ZM171.987 213.551C173.158 235.616 198.339 235.819 198.357 235.819C197.97 241.265 200.678 247.097 200.702 247.149C200.702 241.875 202.181 232.108 202.181 232.108C177.095 235.431 171.987 213.551 171.987 213.551ZM194.06 153.19C191.274 157.269 165.639 170.284 149.719 177.998C135.714 184.786 115.059 202.287 111.562 205.288C111.346 205.458 111.168 205.61 111.04 205.738C111.04 205.738 111.228 205.575 111.562 205.288C117.63 200.512 157.503 179.535 173.355 171.748C190.251 163.447 194.06 153.19 194.06 153.19ZM200.116 191.478C200.751 192.245 201.32 193.564 199.871 193.286C179.763 189.409 166.176 197.698 166.126 197.729C190.739 190.501 198.162 199.877 201.092 197.729C204.01 195.588 200.147 191.511 200.116 191.478ZM74.3158 99.0819C49.5078 123.108 48.5298 147.136 48.5298 147.136C51.2632 130.547 74.2723 99.1413 74.3158 99.0819ZM150.645 88.5324L155.041 105.673C155.041 105.673 122.956 96.1502 99.5148 112.267C99.5148 112.267 126.179 98.495 160.901 112.267L153.868 89.8509L163.538 71.6835L159.29 70.3659L150.645 88.5324Z" fill="black"/>
<path d="M39.4457 195.215C39.379 195.328 26.8958 216.542 45.3066 238.262C59.3115 254.788 60.8357 294.327 55.5614 313.177C55.5614 313.177 58.7896 269.386 35.2458 242.462C28.53 234.786 19.5205 203.393 39.4457 187.571V195.215Z" fill="black"/>
<path d="M0.927734 145.114C0.928241 145.111 0.943606 145.018 0.986694 144.847C0.966639 144.936 0.947068 145.025 0.927734 145.114Z" fill="black"/>
</svg>
