<svg width="811" height="131" viewBox="0 0 811 131" fill="none" xmlns="http://www.w3.org/2000/svg">
<path d="M810.5 72.7385L798.954 72.5836L804.593 82.6601L810.5 72.7385ZM1 129.818L1.44178 130.715C2.64611 130.122 3.84082 129.524 5.02624 128.92L4.57254 128.029L4.11885 127.138C2.94126 127.738 1.75449 128.332 0.558217 128.921L1 129.818ZM6.33792 127.123L6.79744 128.011C9.17485 126.781 11.515 125.531 13.8205 124.262L13.3383 123.386L12.8562 122.51C10.5652 123.771 8.24021 125.013 5.87839 126.235L6.33792 127.123ZM15.0733 122.424L15.5609 123.297C17.8959 121.993 20.1956 120.67 22.463 119.33L21.9543 118.469L21.4456 117.608C19.1917 118.94 16.906 120.255 14.5856 121.551L15.0733 122.424ZM23.6582 117.456L24.1719 118.314C26.4646 116.941 28.7244 115.551 30.9544 114.147L30.4216 113.301L29.8887 112.454C27.6708 113.851 25.4237 115.233 23.1445 116.598L23.6582 117.456ZM32.0952 112.24L32.6326 113.084C34.8841 111.649 37.1057 110.2 39.3005 108.738L38.7463 107.906L38.192 107.074C36.0077 108.528 33.7974 109.97 31.5578 111.397L32.0952 112.24ZM40.3914 106.805L40.9496 107.634C43.1626 106.146 45.349 104.645 47.5119 103.134L46.9393 102.314L46.3667 101.494C44.2126 102.999 42.0359 104.493 39.8332 105.975L40.3914 106.805ZM48.559 101.178L49.1349 101.995C51.3132 100.461 53.4686 98.9171 55.6043 97.3661L55.0167 96.557L54.4291 95.7478C52.3004 97.2937 50.1529 98.8319 47.9831 100.36L48.559 101.178ZM56.6148 95.3925L57.205 96.1998C59.3539 94.6289 61.4837 93.0515 63.598 91.47L62.999 90.6692L62.4 89.8684C60.2908 91.4462 58.1669 93.0192 56.0247 94.5853L56.6148 95.3925ZM64.5854 89.4797L65.1862 90.2791C67.3102 88.6828 69.4194 87.0829 71.5174 85.4821L70.9108 84.6871L70.3042 83.8921C68.2092 85.4906 66.1039 87.0875 63.9846 88.6803L64.5854 89.4797ZM72.4909 83.4798L73.0985 84.274C75.2063 82.6614 77.3038 81.0484 79.3946 79.4377L78.7844 78.6455L78.1741 77.8533C76.0841 79.4634 73.9885 81.0749 71.8832 82.6856L72.4909 83.4798ZM80.3582 77.4327L80.9688 78.2247C83.0686 76.606 85.1621 74.9909 87.2544 73.3808L86.6446 72.5883L86.0347 71.7957C83.9415 73.4065 81.8467 75.0227 79.7477 76.6406L80.3582 77.4327ZM88.2184 71.3781L88.8277 72.171C90.9274 70.5577 93.0262 68.9508 95.128 67.3528L94.5228 66.5567L93.9175 65.7607C91.8122 67.3614 89.7106 68.9705 87.6091 70.5851L88.2184 71.3781ZM96.1035 65.3571L96.7073 66.1542C98.8154 64.5574 100.927 62.9703 103.048 61.3955L102.451 60.5928L101.855 59.79C99.729 61.3692 97.6119 62.9601 95.4997 64.5599L96.1035 65.3571ZM104.046 59.4117L104.64 60.2162C106.764 58.6474 108.898 57.0917 111.044 55.5516L110.461 54.7391L109.878 53.9266C107.724 55.4727 105.583 57.0338 103.452 58.6073L104.046 59.4117ZM112.077 53.5848L112.656 54.3996C114.805 52.8705 116.967 51.3577 119.148 49.8637L118.582 49.0388L118.017 48.2139C115.826 49.7151 113.654 51.2348 111.497 52.7701L112.077 53.5848ZM120.223 47.9204L120.784 48.7481C122.964 47.2699 125.162 45.8112 127.383 44.3745L126.84 43.5349L126.297 42.6953C124.063 44.1404 121.853 45.6071 119.662 47.0927L120.223 47.9204ZM128.506 42.4637L129.044 43.3064C131.261 41.8907 133.5 40.4972 135.766 39.1286L135.249 38.2726L134.732 37.4166C132.451 38.7944 130.198 40.1967 127.968 41.6209L128.506 42.4637ZM136.947 37.2552L137.458 38.1146C139.714 36.7724 141.997 35.455 144.312 34.1651L143.825 33.2916L143.338 32.4181C141.007 33.7176 138.707 35.0444 136.435 36.3958L136.947 37.2552ZM145.558 32.3339L146.038 33.211C148.336 31.9519 150.665 30.72 153.029 29.5178L152.576 28.6265L152.122 27.7351C149.74 28.947 147.393 30.1884 145.077 31.4569L145.558 32.3339ZM154.346 27.7349L154.792 28.6297C157.133 27.4622 159.508 26.3238 161.92 25.2169L161.503 24.308L161.086 23.3991C158.653 24.5153 156.259 25.6631 153.899 26.84L154.346 27.7349ZM163.31 23.4878L163.719 24.4001C166.102 23.3308 168.521 22.2921 170.98 21.2863L170.601 20.3607L170.222 19.4352C167.742 20.4497 165.303 21.4972 162.9 22.5755L163.31 23.4878ZM172.443 19.6162L172.814 20.545C175.235 19.5785 177.695 18.6439 180.197 17.743L179.858 16.8021L179.519 15.8613C176.996 16.77 174.515 17.7127 172.073 18.6875L172.443 19.6162ZM181.733 16.1361L182.064 17.0799C184.52 16.219 187.017 15.3905 189.557 14.5964L189.259 13.6419L188.961 12.6875C186.399 13.4885 183.88 14.324 181.402 15.1924L181.733 16.1361ZM191.162 13.056L191.452 14.0129C193.94 13.2581 196.47 12.5361 199.043 11.8486L198.785 10.8825L198.527 9.91636C195.932 10.6097 193.381 11.3378 190.871 12.0991L191.162 13.056ZM200.71 10.3767L200.96 11.3449C203.476 10.695 206.034 10.0778 208.636 9.49497L208.417 8.51915L208.198 7.54334C205.576 8.1309 202.997 8.75314 200.46 9.4085L200.71 10.3767ZM210.358 8.09245L210.569 9.06998C213.11 8.52209 215.692 8.00673 218.318 7.5253L218.138 6.54169L217.958 5.55808C215.311 6.04323 212.708 6.56264 210.147 7.11492L210.358 8.09245ZM220.089 6.19178L220.262 7.17673C222.824 6.727 225.429 6.30937 228.077 5.92513L227.933 4.93549L227.79 3.94586C225.122 4.33291 222.498 4.75366 219.916 5.20683L220.089 6.19178ZM229.887 4.65917L230.023 5.64981C232.608 5.29366 235.233 4.96908 237.902 4.67724L237.793 3.68317L237.684 2.6891C234.998 2.98294 232.353 3.30981 229.75 3.66853L229.887 4.65917ZM239.743 3.47654L239.845 4.47131C242.446 4.20444 245.087 3.96845 247.771 3.7644L247.695 2.76728L247.619 1.77015C244.918 1.97553 242.259 2.21307 239.641 2.48176L239.743 3.47654ZM249.651 2.62468L249.721 3.62226C252.309 3.44175 254.936 3.29072 257.603 3.17011L257.558 2.17113L257.513 1.17215C254.83 1.29349 252.186 1.44545 249.582 1.6271L249.651 2.62468ZM259.572 2.08613L259.611 3.08536C262.192 2.98418 264.811 2.91126 267.468 2.86741L267.451 1.86755L267.435 0.867687C264.763 0.911777 262.129 0.985116 259.533 1.0869L259.572 2.08613ZM269.446 1.84017L269.457 2.84011C270.788 2.82552 272.129 2.81818 273.48 2.81818V1.81818V0.818176C272.122 0.818176 270.774 0.825561 269.435 0.84023L269.446 1.84017ZM273.48 1.81818V2.81818C274.841 2.81818 276.194 2.83 277.539 2.85343L277.556 1.85358L277.574 0.853733C276.218 0.830105 274.853 0.818176 273.48 0.818176V1.81818ZM279.575 1.89758L279.549 2.89724C282.234 2.96751 284.885 3.08415 287.503 3.24531L287.565 2.2472L287.626 1.24909C284.984 1.08648 282.31 0.968806 279.602 0.897923L279.575 1.89758ZM289.595 2.38147L289.525 3.37898C292.211 3.56899 294.863 3.80595 297.482 4.08781L297.589 3.09356L297.696 2.0993C295.053 1.81482 292.377 1.5757 289.666 1.38397L289.595 2.38147ZM299.573 3.31632L299.457 4.30955C302.145 4.62401 304.799 4.98585 307.42 5.39282L307.573 4.40467L307.727 3.41651C305.081 3.0057 302.403 2.64047 299.689 2.32309L299.573 3.31632ZM309.542 4.71981L309.379 5.70648C312.043 6.14574 314.672 6.63164 317.269 7.1618L317.469 6.18201L317.669 5.20222C315.048 4.66704 312.393 4.17654 309.704 3.73313L309.542 4.71981ZM319.43 6.59212L319.221 7.56997C321.852 8.13311 324.45 8.74163 327.016 9.39302L327.262 8.42376L327.508 7.4545C324.918 6.797 322.296 6.18273 319.64 5.61426L319.43 6.59212ZM329.209 8.92771L328.954 9.89462C331.55 10.5796 334.114 11.3084 336.647 12.0782L336.937 11.1214L337.228 10.1646C334.672 9.38773 332.085 8.65221 329.464 7.9608L329.209 8.92771ZM338.863 11.7164L338.563 12.6704C341.121 13.4735 343.648 14.3184 346.146 15.2021L346.479 14.2594L346.813 13.3167C344.293 12.4251 341.744 11.5727 339.163 10.7623L338.863 11.7164ZM348.379 14.9408L348.037 15.8806C350.554 16.7963 353.042 17.7512 355.502 18.7426L355.876 17.8151L356.25 16.8875C353.769 15.8879 351.26 14.9248 348.72 14.0011L348.379 14.9408ZM357.745 18.5773L357.364 19.5017C359.839 20.523 362.286 21.5808 364.708 22.6721L365.119 21.7603L365.53 20.8486C363.089 19.7489 360.622 18.6826 358.126 17.6529L357.745 18.5773ZM366.955 22.596L366.537 23.5045C368.971 24.6237 371.38 25.7762 373.765 26.9591L374.209 26.0632L374.653 25.1673C372.251 23.9761 369.825 22.8151 367.373 21.6874L366.955 22.596ZM376.007 26.9626L375.556 27.8554C377.949 29.0625 380.318 30.2996 382.666 31.5635L383.14 30.6829L383.614 29.8024C381.251 28.5306 378.866 27.2853 376.457 26.0699L376.007 26.9626ZM384.904 31.6396L384.424 32.5172C386.776 33.8019 389.107 35.1128 391.42 36.4469L391.92 35.5806L392.419 34.7144C390.094 33.3731 387.749 32.0545 385.383 30.762L384.904 31.6396ZM393.656 36.5881L393.151 37.4516C395.465 38.8029 397.761 40.1766 400.041 41.5694L400.563 40.716L401.084 39.8626C398.793 38.4634 396.486 37.0829 394.16 35.7246L393.656 36.5881ZM402.274 41.7668L401.749 42.6178C404.029 44.0248 406.294 45.4503 408.546 46.8908L409.085 46.0484L409.624 45.2061C407.364 43.7602 405.09 42.3289 402.799 40.9157L402.274 41.7668ZM410.776 47.1341L410.234 47.9746C412.486 49.4268 414.726 50.8934 416.956 52.3709L417.508 51.5374L418.06 50.7038C415.825 49.2222 413.578 47.751 411.318 46.2937L410.776 47.1341ZM419.182 52.6497L418.627 53.4818C420.858 54.9687 423.079 56.4657 425.292 57.9696L425.854 57.1424L426.416 56.3153C424.199 54.8087 421.973 53.3083 419.736 51.8176L419.182 52.6497ZM427.516 58.2734L426.952 59.0996C429.168 60.6105 431.377 62.1274 433.581 63.6469L434.149 62.8235L434.716 62.0002C432.51 60.4794 430.298 58.9606 428.079 57.4472L427.516 58.2734ZM435.804 63.9651L435.235 64.788C437.443 66.3125 439.647 67.8384 441.85 69.3629L442.419 68.5406L442.988 67.7184C440.786 66.1943 438.581 64.6675 436.372 63.1421L435.804 63.9651ZM444.072 69.6847L443.503 70.5071C445.711 72.0343 447.917 73.559 450.125 75.0774L450.692 74.2535L451.258 73.4295C449.053 71.9127 446.848 70.3892 444.641 68.8623L444.072 69.6847ZM452.349 75.3919L451.783 76.2165C453.998 77.7357 456.214 79.2478 458.435 80.7494L458.995 79.9209L459.556 79.0925C457.339 77.5941 455.126 76.0845 452.915 74.5673L452.349 75.3919ZM460.663 81.0455L460.104 81.8751C462.333 83.375 464.567 84.8634 466.809 86.3366L467.358 85.501L467.907 84.6653C465.673 83.1966 463.445 81.7123 461.221 80.2158L460.663 81.0455ZM469.04 86.603L468.494 87.4404C470.744 88.9093 473.003 90.3622 475.272 91.7955L475.806 90.95L476.34 90.1045C474.08 88.6772 471.83 87.2297 469.587 85.7655L469.04 86.603ZM477.509 92.0204L476.978 92.8682C479.257 94.2941 481.547 95.6993 483.851 97.0803L484.365 96.2226L484.879 95.365C482.587 93.991 480.308 92.5924 478.039 91.1727L477.509 92.0204ZM486.093 97.2522L485.583 98.1125C487.896 99.4827 490.224 100.828 492.568 102.144L493.057 101.272L493.547 100.4C491.217 99.0919 488.903 97.7546 486.602 96.3918L486.093 97.2522ZM494.814 102.251L494.33 103.126C496.682 104.427 499.052 105.699 501.442 106.937L501.902 106.049L502.362 105.161C499.989 103.932 497.635 102.669 495.298 101.376L494.814 102.251ZM503.69 106.967L503.236 107.858C505.632 109.078 508.048 110.263 510.487 111.41L510.913 110.505L511.338 109.6C508.919 108.462 506.522 107.286 504.143 106.076L503.69 106.967ZM512.734 111.352L512.316 112.261C514.757 113.385 517.221 114.47 519.711 115.513L520.098 114.591L520.484 113.669C518.016 112.635 515.573 111.559 513.152 110.444L512.734 111.352ZM521.952 115.358L521.574 116.284C524.061 117.299 526.574 118.273 529.115 119.2L529.458 118.26L529.801 117.321C527.284 116.403 524.794 115.439 522.33 114.432L521.952 115.358ZM531.343 118.938L531.01 119.881C533.542 120.776 536.102 121.626 538.693 122.427L538.988 121.471L539.283 120.516C536.719 119.724 534.184 118.882 531.677 117.995L531.343 118.938ZM540.901 122.051L540.616 123.01C543.186 123.775 545.788 124.492 548.421 125.156L548.666 124.186L548.91 123.216C546.304 122.559 543.731 121.85 541.186 121.093L540.901 122.051ZM550.61 124.665L550.376 125.637C552.977 126.264 555.61 126.839 558.276 127.36L558.468 126.378L558.66 125.397C556.022 124.882 553.417 124.313 550.844 123.693L550.61 124.665ZM560.451 126.754L560.27 127.738C562.891 128.22 565.545 128.65 568.234 129.024L568.372 128.033L568.509 127.043C565.85 126.673 563.225 126.248 560.632 125.771L560.451 126.754ZM570.384 128.302L570.257 129.294C572.892 129.631 575.561 129.915 578.265 130.143L578.349 129.146L578.433 128.15C575.758 127.925 573.118 127.644 570.51 127.31L570.384 128.302ZM580.368 129.306L580.294 130.303C582.943 130.498 585.625 130.638 588.342 130.723L588.374 129.724L588.405 128.724C585.716 128.64 583.061 128.501 580.441 128.308L580.368 129.306ZM590.389 129.776L590.369 130.776C591.724 130.804 593.087 130.818 594.46 130.818V129.818V128.818C593.101 128.818 591.751 128.804 590.41 128.776L590.389 129.776ZM594.46 129.818V130.818C595.813 130.818 597.156 130.815 598.488 130.81L598.484 129.81L598.48 128.81C597.15 128.815 595.811 128.818 594.46 128.818V129.818ZM600.472 129.799L600.479 130.799C603.145 130.783 605.77 130.754 608.352 130.715L608.337 129.715L608.322 128.716C605.745 128.755 603.127 128.783 600.466 128.799L600.472 129.799ZM610.345 129.683L610.363 130.683C613.032 130.636 615.656 130.577 618.237 130.507L618.21 129.507L618.183 128.508C615.609 128.578 612.991 128.636 610.328 128.683L610.345 129.683ZM620.203 129.451L620.233 130.45C622.924 130.37 625.567 130.277 628.163 130.172L628.122 129.172L628.082 128.173C625.493 128.278 622.857 128.371 620.173 128.451L620.203 129.451ZM630.058 129.091L630.102 130.09C632.808 129.973 635.463 129.842 638.069 129.697L638.013 128.698L637.958 127.7C635.36 127.844 632.713 127.975 630.015 128.092L630.058 129.091ZM639.956 128.588L640.014 129.586C642.715 129.428 645.363 129.255 647.958 129.068L647.886 128.07L647.815 127.073C645.228 127.259 642.59 127.432 639.897 127.589L639.956 128.588ZM649.831 127.927L649.906 128.924C652.604 128.72 655.245 128.501 657.832 128.267L657.742 127.271L657.652 126.275C655.075 126.508 652.443 126.727 649.756 126.93L649.831 127.927ZM659.683 127.091L659.777 128.087C662.471 127.832 665.107 127.561 667.685 127.274L667.574 126.28L667.464 125.286C664.897 125.572 662.272 125.842 659.588 126.096L659.683 127.091ZM669.505 126.061L669.62 127.054C672.311 126.742 674.939 126.413 677.508 126.067L677.374 125.076L677.24 124.085C674.685 124.429 672.069 124.757 669.39 125.067L669.505 126.061ZM679.324 124.808L679.463 125.798C682.139 125.424 684.75 125.03 687.299 124.619L687.139 123.632L686.98 122.644C684.446 123.053 681.849 123.445 679.186 123.817L679.324 124.808ZM689.123 123.306L689.288 124.292C691.959 123.845 694.561 123.378 697.097 122.892L696.909 121.91L696.721 120.928C694.2 121.411 691.614 121.875 688.958 122.319L689.123 123.306ZM698.858 121.53L699.052 122.511C701.71 121.984 704.296 121.436 706.814 120.867L706.593 119.892L706.373 118.916C703.872 119.481 701.304 120.026 698.663 120.549L698.858 121.53ZM708.499 119.454L708.726 120.428C711.364 119.813 713.928 119.175 716.423 118.516L716.167 117.549L715.912 116.583C713.436 117.237 710.892 117.87 708.272 118.481L708.499 119.454ZM718.103 117.03L718.366 117.995C720.984 117.281 723.525 116.543 725.997 115.783L725.704 114.828L725.41 113.872C722.958 114.625 720.437 115.357 717.84 116.065L718.103 117.03ZM727.578 114.243L727.88 115.196C730.463 114.379 732.97 113.537 735.409 112.672L735.075 111.729L734.741 110.787C732.323 111.644 729.838 112.479 727.276 113.289L727.578 114.243ZM736.95 111.055L737.292 111.995C739.831 111.07 742.297 110.12 744.7 109.147L744.324 108.22L743.949 107.293C741.567 108.257 739.123 109.199 736.607 110.116L736.95 111.055ZM746.152 107.471L746.535 108.394C749.028 107.359 751.455 106.3 753.826 105.219L753.411 104.309L752.996 103.399C750.645 104.471 748.24 105.521 745.768 106.547L746.152 107.471ZM755.197 103.486L755.62 104.392C758.056 103.257 760.436 102.099 762.771 100.922L762.321 100.029L761.871 99.1359C759.552 100.305 757.191 101.454 754.775 102.58L755.197 103.486ZM764.082 99.1334L764.538 100.023C766.914 98.8041 769.247 97.5649 771.551 96.3088L771.072 95.4308L770.593 94.5528C768.302 95.8019 765.984 97.0332 763.625 98.2437L764.082 99.1334ZM772.806 94.4794L773.289 95.3548C775.612 94.0727 777.908 92.7739 780.193 91.4619L779.695 90.5947L779.197 89.7275C776.92 91.0352 774.633 92.3284 772.323 93.6039L772.806 94.4794ZM781.409 89.607L781.909 90.4727C784.191 89.1532 786.466 87.8208 788.746 86.4794L788.24 85.6175L787.733 84.7555C785.453 86.0959 783.184 87.4254 780.908 88.7414L781.409 89.607ZM789.942 84.6153L790.45 85.4769C792.709 84.1466 794.977 82.8086 797.27 81.4646L796.765 80.6018L796.259 79.739C793.963 81.0845 791.692 82.4242 789.435 83.7536L789.942 84.6153ZM798.466 79.6067L798.97 80.4703C801.222 79.156 803.5 77.8375 805.818 76.5172L805.323 75.6483L804.829 74.7793C802.502 76.104 800.218 77.4263 797.962 78.743L798.466 79.6067Z" fill="#111111"/>
</svg>
