<svg width="559" height="130" viewBox="0 0 559 130" fill="none" xmlns="http://www.w3.org/2000/svg">
<path d="M558.171 55L548.213 60.847L548.128 49.3003L558.171 55ZM1 1L1.4645 0.114426C2.6736 0.748627 3.87237 1.38892 5.06119 2.03502L4.58367 2.91364L4.10615 3.79227C2.92587 3.1508 1.73578 2.51514 0.5355 1.88557L1 1ZM6.35313 3.88364L6.83699 3.00851C9.22153 4.32692 11.5661 5.66853 13.8738 7.03102L13.3654 7.89214L12.857 8.75326C10.565 7.40005 8.23681 6.06781 5.86926 4.75879L6.35313 3.88364ZM15.0971 8.92252L15.6114 8.0649C17.9461 9.46494 20.2433 10.8861 22.5064 12.3258L21.9696 13.1695L21.4328 14.0133C19.1841 12.5826 16.9018 11.1708 14.5828 9.78014L15.0971 8.92252ZM23.6639 14.255L24.206 13.4147C26.4914 14.889 28.7423 16.3819 30.9622 17.8908L30.4001 18.7178L29.8379 19.5449C27.6306 18.0445 25.3931 16.5605 23.1219 15.0953L23.6639 14.255ZM32.059 19.8524L32.6258 19.0285C34.8641 20.5685 37.0713 22.1244 39.2512 23.6933L38.667 24.5049L38.0828 25.3166C35.9137 23.7553 33.7181 22.2077 31.4922 20.6762L32.059 19.8524ZM40.3026 25.6883L40.8907 24.8795C43.0836 26.4742 45.2494 28.0817 47.3919 29.699L46.7894 30.4972L46.1869 31.2953C44.0531 29.6845 41.8969 28.0841 39.7144 26.497L40.3026 25.6883ZM48.4038 31.7211L49.0095 30.9254C51.1647 32.566 53.2971 34.2161 55.4105 35.8726L54.7936 36.6597L54.1767 37.4467C52.0698 35.7953 49.945 34.151 47.7981 32.5168L48.4038 31.7211ZM56.3833 37.9096L57.0026 37.1245C59.127 38.8001 61.2332 40.4816 63.3252 42.166L62.698 42.9449L62.0709 43.7238C59.9832 42.0429 57.8823 40.3656 55.764 38.6948L56.3833 37.9096ZM64.2696 44.2129L64.8983 43.4353C67.0002 45.1345 69.0888 46.836 71.168 48.5366L70.5349 49.3107L69.9018 50.0848C67.8245 48.3857 65.739 46.6868 63.6409 44.9906L64.2696 44.2129ZM72.0958 50.5884L72.7296 49.8149C74.8179 51.5259 76.8986 53.2357 78.9746 54.9402L78.34 55.7131L77.7055 56.486C75.6286 54.7807 73.5493 53.072 71.4621 51.362L72.0958 50.5884ZM79.8987 56.9925L80.5331 56.2195C82.618 57.9302 84.6997 59.6352 86.7829 61.3317L86.1514 62.1071L85.5199 62.8825C83.434 61.1838 81.3501 59.477 79.2644 57.7656L79.8987 56.9925ZM87.7195 63.3822L88.3498 62.6058C90.4408 64.3033 92.534 65.9911 94.6341 67.6663L94.0105 68.4481L93.3869 69.2298C91.2814 67.5503 89.1836 65.8588 87.0893 64.1586L87.7195 63.3822ZM95.5913 69.7055L96.2127 68.922C98.3199 70.5934 100.435 72.2511 102.562 73.8922L101.951 74.684L101.34 75.4757C99.205 73.8284 97.083 72.1651 94.9699 70.489L95.5913 69.7055ZM103.552 75.9144L104.16 75.1202C106.293 76.7521 108.439 78.3666 110.603 79.9604L110.01 80.7656L109.417 81.5707C107.242 79.9689 105.086 78.3471 102.945 76.7085L103.552 75.9144ZM111.639 81.9596L112.228 81.1514C114.395 82.7306 116.581 84.2884 118.79 85.8218L118.22 86.6432L117.649 87.4647C115.427 85.9219 113.229 84.3552 111.051 82.7678L111.639 81.9596ZM119.883 87.7904L120.448 86.9654C122.657 88.4785 124.89 89.9667 127.15 91.4269L126.608 92.2669L126.065 93.1069C123.788 91.6363 121.541 90.1381 119.318 88.6154L119.883 87.7904ZM128.304 93.3535L128.84 92.5095C131.095 93.943 133.379 95.3482 135.695 96.7222L135.185 97.5823L134.675 98.4424C132.34 97.0574 130.039 95.6413 127.767 94.1974L128.304 93.3535ZM136.923 98.6037L137.426 97.7395C139.731 99.0812 142.068 100.392 144.443 101.668L143.969 102.549L143.496 103.43C141.1 102.142 138.743 100.821 136.42 99.4679L136.923 98.6037ZM145.752 103.498L146.218 102.613C148.573 103.852 150.964 105.058 153.397 106.227L152.964 107.128L152.53 108.03C150.075 106.849 147.662 105.633 145.286 104.383L145.752 103.498ZM154.793 107.997L155.218 107.092C157.622 108.22 160.066 109.313 162.553 110.368L162.163 111.288L161.773 112.209C159.261 111.144 156.794 110.041 154.368 108.903L154.793 107.997ZM164.038 112.072L164.419 111.148C166.869 112.159 169.361 113.132 171.899 114.067L171.554 115.005L171.208 115.944C168.646 115 166.129 114.017 163.656 112.997L164.038 112.072ZM173.466 115.699L173.802 114.757C176.294 115.647 178.831 116.5 181.414 117.312L181.114 118.266L180.814 119.22C178.206 118.4 175.645 117.539 173.129 116.641L173.466 115.699ZM183.044 118.863L183.335 117.906C185.868 118.676 188.447 119.408 191.075 120.099L190.82 121.067L190.566 122.034C187.914 121.336 185.311 120.597 182.753 119.82L183.044 118.863ZM192.765 121.569L193.01 120.599C195.578 121.25 198.191 121.862 200.853 122.434L200.643 123.412L200.433 124.389C197.747 123.812 195.11 123.195 192.519 122.538L192.765 121.569ZM202.603 123.824L202.805 122.845C205.397 123.378 208.036 123.873 210.722 124.329L210.555 125.315L210.388 126.301C207.678 125.841 205.017 125.342 202.402 124.804L202.603 123.824ZM212.537 125.643L212.696 124.656C215.304 125.076 217.958 125.459 220.659 125.804L220.532 126.796L220.406 127.788C217.683 127.44 215.008 127.054 212.378 126.63L212.537 125.643ZM222.546 127.044L222.665 126.052C225.28 126.364 227.939 126.641 230.643 126.881L230.555 127.877L230.467 128.873C227.742 128.631 225.063 128.352 222.427 128.037L222.546 127.044ZM232.6 128.05L232.681 127.053C235.298 127.265 237.958 127.443 240.662 127.585L240.61 128.584L240.557 129.582C237.834 129.439 235.155 129.26 232.519 129.047L232.6 128.05ZM242.649 128.684L242.694 127.685C245.324 127.804 247.994 127.89 250.708 127.942L250.689 128.942L250.67 129.942C247.939 129.89 245.25 129.803 242.604 129.683L242.649 128.684ZM252.716 128.974L252.729 127.974C254.081 127.991 255.444 128 256.818 128V129V130C255.436 130 254.064 129.991 252.703 129.974L252.716 128.974ZM256.818 129V128C258.185 128 259.544 127.992 260.894 127.977L260.905 128.977L260.917 129.977C259.559 129.992 258.193 130 256.818 130V129ZM262.929 128.948L262.912 127.948C265.618 127.901 268.29 127.824 270.928 127.717L270.968 128.716L271.009 129.715C268.355 129.823 265.668 129.901 262.947 129.948L262.929 128.948ZM273.003 128.628L272.956 127.629C275.654 127.504 278.317 127.347 280.946 127.162L281.017 128.159L281.087 129.157C278.442 129.343 275.763 129.501 273.049 129.627L273.003 128.628ZM283.056 128.009L282.98 127.012C285.682 126.804 288.349 126.565 290.983 126.297L291.084 127.292L291.186 128.286C288.536 128.556 285.852 128.797 283.133 129.006L283.056 128.009ZM293.086 127.081L292.978 126.087C295.681 125.795 298.347 125.471 300.981 125.119L301.114 126.11L301.246 127.101C298.596 127.456 295.913 127.781 293.193 128.076L293.086 127.081ZM303.088 125.839L302.949 124.849C305.644 124.471 308.303 124.062 310.93 123.625L311.094 124.611L311.258 125.597C308.615 126.038 305.939 126.449 303.227 126.829L303.088 125.839ZM313.064 124.276L312.894 123.291C315.57 122.828 318.213 122.335 320.822 121.815L321.018 122.796L321.213 123.776C318.587 124.3 315.928 124.796 313.235 125.262L313.064 124.276ZM322.98 122.398L322.779 121.418C325.436 120.871 328.059 120.296 330.652 119.694L330.878 120.668L331.104 121.642C328.496 122.248 325.856 122.827 323.182 123.377L322.98 122.398ZM332.829 120.209L332.597 119.237C335.233 118.608 337.837 117.952 340.412 117.272L340.667 118.239L340.923 119.206C338.333 119.89 335.713 120.549 333.061 121.182L332.829 120.209ZM342.605 117.721L342.344 116.756C344.957 116.049 347.541 115.318 350.097 114.564L350.38 115.523L350.663 116.482C348.093 117.24 345.495 117.976 342.866 118.687L342.605 117.721ZM352.302 114.95L352.014 113.992C354.605 113.213 357.168 112.411 359.706 111.588L360.014 112.54L360.322 113.491C357.772 114.317 355.195 115.124 352.59 115.908L352.302 114.95ZM361.92 111.917L361.607 110.967C364.176 110.121 366.718 109.255 369.239 108.372L369.569 109.315L369.9 110.259C367.369 111.146 364.814 112.016 362.233 112.867L361.92 111.917ZM371.466 108.646L371.131 107.704C373.675 106.8 376.198 105.879 378.701 104.943L379.051 105.88L379.401 106.817C376.889 107.756 374.356 108.68 371.8 109.589L371.466 108.646ZM380.941 105.17L380.587 104.235C383.11 103.281 385.613 102.315 388.101 101.337L388.467 102.268L388.832 103.199C386.338 104.179 383.826 105.149 381.294 106.105L380.941 105.17ZM390.35 101.525L389.982 100.595C392.489 99.602 394.98 98.5989 397.458 97.5889L397.836 98.5149L398.213 99.441C395.729 100.453 393.232 101.459 390.719 102.455L390.35 101.525ZM399.707 97.75L399.328 96.8247C401.822 95.8025 404.305 94.7741 406.778 93.7427L407.163 94.6657L407.548 95.5887C405.072 96.6212 402.585 97.6512 400.086 98.6753L399.707 97.75ZM409.027 93.8875L408.641 92.9649C411.128 91.9253 413.606 90.8835 416.08 89.8427L416.468 90.7645L416.855 91.6862C414.381 92.7271 411.901 93.7695 409.413 94.8101L409.027 93.8875ZM418.328 89.9819L417.94 89.0601C420.423 88.0153 422.903 86.9723 425.382 85.9347L425.768 86.8572L426.154 87.7797C423.677 88.8164 421.199 89.8588 418.715 90.9036L418.328 89.9819ZM427.629 86.0793L427.244 85.1564C429.73 84.119 432.216 83.0877 434.706 82.066L435.085 82.9911L435.465 83.9162C432.98 84.9361 430.498 85.9658 428.015 87.0021L427.629 86.0793ZM436.953 82.227L436.575 81.3011C439.068 80.284 441.565 79.2773 444.071 78.2843L444.439 79.214L444.808 80.1437C442.309 81.1337 439.818 82.1379 437.33 83.1529L436.953 82.227ZM446.317 78.4731L445.952 77.5423C448.457 76.5584 450.97 75.5891 453.496 74.6378L453.849 75.5737L454.201 76.5095C451.685 77.4571 449.18 78.423 446.683 79.4039L446.317 78.4731ZM455.738 74.8665L455.389 73.9292C457.911 72.991 460.446 72.0714 462.997 71.1738L463.329 72.1171L463.661 73.0604C461.122 73.9538 458.598 74.8693 456.087 75.8037L455.738 74.8665ZM465.229 71.4538L464.901 70.5089C467.442 69.6289 469.999 68.7715 472.577 67.9399L472.884 68.8915L473.191 69.8432C470.628 70.6702 468.084 71.5231 465.556 72.3987L465.229 71.4538ZM474.801 68.2789L474.499 67.3254C477.06 66.5152 479.642 65.731 482.247 64.9761L482.525 65.9366L482.804 66.897C480.215 67.6473 477.649 68.4267 475.103 69.2323L474.801 68.2789ZM484.461 65.3821L484.189 64.4199C486.771 63.6895 489.377 62.9883 492.009 62.3195L492.255 63.2887L492.502 64.2579C489.887 64.9222 487.299 65.6187 484.734 66.3443L484.461 65.3821ZM494.211 62.799L493.971 61.8281C496.573 61.1862 499.202 60.5762 501.86 60.0011L502.071 60.9785L502.283 61.9559C499.644 62.5268 497.034 63.1324 494.45 63.7699L494.211 62.799ZM504.046 60.559L503.841 59.58C506.462 59.0334 509.111 58.5209 511.791 58.0453L511.966 59.0299L512.141 60.0146C509.48 60.4865 506.851 60.9952 504.25 61.5379L504.046 60.559ZM513.957 58.6846L513.79 57.6986C516.425 57.2519 519.091 56.8411 521.791 56.4687L521.928 57.4593L522.064 58.4499C519.385 58.8194 516.74 59.2271 514.124 59.6705L513.957 58.6846ZM523.933 57.1907L523.804 56.199C526.451 55.8548 529.13 55.5478 531.844 55.2802L531.943 56.2754L532.041 57.2706C529.347 57.5361 526.688 57.8408 524.062 58.1823L523.933 57.1907ZM533.957 56.0846L533.867 55.0887C536.523 54.8477 539.212 54.6446 541.936 54.4815L541.995 55.4797L542.055 56.4779C539.352 56.6398 536.683 56.8414 534.048 57.0805L533.957 56.0846ZM544.015 55.3665L543.963 54.3678C546.624 54.2289 549.319 54.1282 552.05 54.0676L552.072 55.0674L552.094 56.0671C549.384 56.1272 546.709 56.2272 544.068 56.3651L544.015 55.3665Z" fill="#111111"/>
</svg>
