<svg width="109" height="80" viewBox="0 0 109 80" fill="none" xmlns="http://www.w3.org/2000/svg">
<path d="M2.05234 1.12456C1.9968 0.947388 1.87095 0.797949 1.70546 0.708273C1.53979 0.618646 1.34804 0.596126 1.16941 0.646508C0.990789 0.696889 0.839066 0.816286 0.744648 0.97927C0.650403 1.14221 0.621191 1.33538 0.666411 1.51546C1.77459 5.89115 3.41122 10.1314 5.30524 14.2331C10.6318 25.6007 17.7946 36.0729 26.3531 45.3052C36.9456 55.3518 48.3143 69.7419 66.9964 65.8914C72.9174 63.5411 75.036 57.0755 75.4081 52.1836C75.8379 46.9991 75.1053 42.1003 73.9399 37.3214C71.43 27.8527 67.5934 18.6987 60.2759 11.2492C57.4182 8.54497 53.0002 5.34303 47.5725 6.80547C42.3828 8.47464 40.1155 12.7354 38.3829 16.2954C36.7373 19.8223 35.9608 23.8968 36.3841 27.8403C43.3271 54.6322 69.9077 63.1949 91.4146 70.5676C94.9747 71.5501 98.6163 72.4142 102.408 72.784C103.205 72.858 104.226 72.4625 104.999 72.2197C105.142 72.1774 105.28 72.0644 105.381 71.9301C105.482 71.7943 105.539 71.6483 105.539 71.4997C105.539 71.3511 105.482 71.205 105.381 71.0693C105.28 70.935 105.142 70.822 104.999 70.7797C104.284 70.5416 103.438 70.0163 102.721 69.9211C99.2645 69.4584 95.7646 68.4875 92.3767 67.3877C71.7515 59.814 46.7128 47.7436 42.1144 27.2563C41.8107 24.3513 42.3478 21.4411 43.6152 18.7039C44.9907 15.6437 47.0708 12.8769 49.1544 12.344C51.1174 11.6839 53.9593 13.1219 56.2913 15.4086C62.2515 21.3932 66.2019 30.1173 68.5171 38.6987C70.6691 46.8832 71.5271 58.2157 65.0017 61.108C52.972 64.4719 39.375 52.1298 29.4831 42.3277C21.0407 33.5613 13.3159 23.912 7.36001 13.1955C5.23985 9.33062 3.37005 5.30741 2.05234 1.12456Z" fill="#111111"/>
<path d="M89.7936 78.2892C89.6176 78.3831 89.4412 78.4761 89.265 78.5694C89.405 78.9429 89.5451 79.3164 89.6852 79.6898C89.8793 79.6442 90.0734 79.5983 90.2677 79.5533C90.8381 79.421 91.407 79.2849 91.9745 79.1451C97.0822 77.8868 102.076 76.3258 106.968 74.4912C107 74.479 107.033 74.4668 107.065 74.4545C108.145 74.0506 108.563 72.9414 108.022 71.9235C105.58 67.3443 102.884 62.9006 99.9059 58.6069C99.5728 58.1267 99.2362 57.6483 98.896 57.1718C98.7801 57.0094 98.6649 56.8466 98.5495 56.684C98.1974 56.8714 97.8453 57.0588 97.4932 57.2462C97.5636 57.4328 97.6343 57.6192 97.7043 57.806C97.9096 58.3544 98.1184 58.9008 98.3307 59.4453C100.229 64.3137 102.409 69.0321 104.844 73.6149L105.801 71.0839C105.769 71.0961 105.736 71.1083 105.704 71.1204C100.812 72.9551 96.0232 75.0633 91.3479 77.4743C90.8284 77.7422 90.3103 78.0138 89.7936 78.2892Z" fill="#111111"/>
</svg>
