<svg width="706" height="3695" viewBox="0 0 706 3695" fill="none" xmlns="http://www.w3.org/2000/svg">
<path d="M706 469L388 310L15 486V346L327 201V130H15V5.72205e-06L706 5.72205e-06V130L426 130V203L706 342V469ZM212 836.664C162 819.331 122.667 799.997 94 778.664C66 757.331 44.6667 731.664 30 701.664C16 671.664 6 633.664 -5.96046e-07 587.664L89 569.664C97 610.997 108.667 641.997 124 662.664C139.333 683.997 165 701.664 201 715.664V672.664L706 478.664V609.664L276 752.664L706 878.664V1007.66L212 836.664ZM706 1488.18H15V1358.18H604V1213.18L334 1185.18C252.667 1176.51 190.667 1165.51 148 1152.18C105.333 1139.51 73.3333 1121.85 52 1099.18C30.6667 1076.51 13.3333 1043.85 -5.96046e-07 1001.18L95 970.18C104.333 990.846 116.333 1006.51 131 1017.18C145.667 1027.85 168 1036.18 198 1042.18C228.667 1048.85 275.667 1055.51 339 1062.18L706 1101.18V1488.18ZM15 1960.98L176 1922.98V1722.98L15 1684.98V1553.98L706 1745.98V1903.98L15 2094.98V1960.98ZM274 1744.98V1900.98L607 1822.98L274 1744.98ZM706 2550.13L601 2535.13V2291.13H15V2161.13H706V2550.13ZM15 3088.09V2962.09H312C401.333 2962.09 488.333 2967.76 573 2979.09L15 2779.09L15 2621.09H706L706 2747.09H406C352.667 2747.09 308 2745.43 272 2742.09C236 2739.43 194.667 2735.43 148 2730.09L706 2932.09V3088.09H15ZM15 3564.56H325V3356.56H15V3226.56H706V3356.56H428V3564.56H706V3694.56H15V3564.56Z" fill="#111111"/>
</svg>
