<svg viewBox="0 0 3695 707" fill="currentColor" xmlns="http://www.w3.org/2000/svg">
<path d="M469 0.499956L310 318.5L486 691.5H346L201 379.5H130V691.5H5.72205e-06V0.499956H130V280.5H203L342 0.499956H469ZM836.664 494.5C819.331 544.5 799.997 583.833 778.664 612.5C757.331 640.5 731.664 661.833 701.664 676.5C671.664 690.5 633.664 700.5 587.664 706.5L569.664 617.5C610.997 609.5 641.997 597.833 662.664 582.5C683.997 567.167 701.664 541.5 715.664 505.5H672.664L478.664 0.499956H609.664L752.664 430.5L878.664 0.499956H1007.66L836.664 494.5ZM1488.18 0.499956V691.5H1358.18V102.5H1213.18L1185.18 372.5C1176.51 453.833 1165.51 515.833 1152.18 558.5C1139.51 601.167 1121.85 633.167 1099.18 654.5C1076.51 675.833 1043.85 693.167 1001.18 706.5L970.18 611.5C990.846 602.167 1006.51 590.167 1017.18 575.5C1027.85 560.833 1036.18 538.5 1042.18 508.5C1048.85 477.833 1055.51 430.833 1062.18 367.5L1101.18 0.499956H1488.18ZM1960.98 691.5L1922.98 530.5H1722.98L1684.98 691.5H1553.98L1745.98 0.499956H1903.98L2094.98 691.5H1960.98ZM1744.98 432.5H1900.98L1822.98 99.5L1744.98 432.5ZM2550.13 0.499956L2535.13 105.5H2291.13V691.5H2161.13V0.499956H2550.13ZM3088.09 691.5H2962.09V394.5C2962.09 305.167 2967.76 218.167 2979.09 133.5L2779.09 691.5H2621.09V0.499956H2747.09V300.5C2747.09 353.833 2745.43 398.5 2742.09 434.5C2739.43 470.5 2735.43 511.833 2730.09 558.5L2932.09 0.499956H3088.09V691.5ZM3564.56 691.5V381.5H3356.56V691.5H3226.56V0.499956H3356.56V278.5H3564.56V0.499956H3694.56V691.5H3564.56Z"/>
</svg>
