<svg width="380" height="47" viewBox="0 0 380 47" fill="none" xmlns="http://www.w3.org/2000/svg">
<path d="M88.0373 16.8657V20.6483H94.1062V22.6017H88.0373V27.361H85.7031V14.93H94.8783V16.8657H88.0373Z" fill="#111111"/>
<path d="M100.979 27.5386C100.01 27.5386 99.07 27.4024 98.1603 27.1301C97.2625 26.8578 96.5503 26.4968 96.0236 26.0469L96.8316 24.2533C97.3463 24.6558 97.9747 24.9873 98.7169 25.2477C99.471 25.4964 100.225 25.6207 100.979 25.6207C101.913 25.6207 102.607 25.4727 103.062 25.1767C103.529 24.8807 103.762 24.49 103.762 24.0046C103.762 23.6495 103.631 23.3594 103.367 23.1345C103.116 22.8977 102.793 22.7142 102.398 22.5839C102.003 22.4537 101.464 22.3057 100.782 22.14C99.8241 21.915 99.0461 21.6901 98.4476 21.4652C97.861 21.2402 97.3523 20.891 96.9214 20.4174C96.5024 19.932 96.2929 19.2808 96.2929 18.464C96.2929 17.7773 96.4785 17.1557 96.8495 16.5993C97.2326 16.031 97.8012 15.5811 98.5553 15.2497C99.3214 14.9182 100.255 14.7524 101.356 14.7524C102.122 14.7524 102.877 14.8471 103.619 15.0365C104.361 15.226 105.001 15.4983 105.54 15.8534L104.804 17.6471C104.253 17.3274 103.679 17.0847 103.08 16.919C102.482 16.7532 101.901 16.6703 101.338 16.6703C100.417 16.6703 99.7284 16.8242 99.2735 17.1321C98.8306 17.4399 98.6092 17.8483 98.6092 18.3574C98.6092 18.7126 98.7348 19.0026 98.9862 19.2276C99.2496 19.4525 99.5787 19.6301 99.9738 19.7603C100.369 19.8906 100.907 20.0385 101.59 20.2043C102.523 20.4174 103.289 20.6423 103.888 20.8791C104.487 21.1041 104.995 21.4533 105.414 21.9269C105.845 22.4004 106.061 23.0397 106.061 23.8448C106.061 24.5315 105.869 25.153 105.486 25.7095C105.115 26.2659 104.546 26.7099 103.78 27.0413C103.014 27.3728 102.081 27.5386 100.979 27.5386Z" fill="#111111"/>
<path d="M42.3345 1.76934e-05C37.8511 2.32303 35.7178 6.71646 35.3606 8.98737C33.5083 7.5998 28.8875 5.90646 24.0312 7.31718C25.7067 9.02422 27.9472 10.5415 30.1317 15.8868C32.4618 21.5884 36.2329 22.4023 40.1956 20.8182C44.1583 19.234 46.2983 16.0569 43.9682 10.3553C41.7837 5.01006 42.3289 2.3791 42.3345 1.76934e-05Z" fill="#111111"/>
<path fill-rule="evenodd" clip-rule="evenodd" d="M62.1493 14.2534C65.0097 14.2535 67.606 14.9936 69.9384 16.4734C72.2269 17.9098 74.0538 19.8688 75.4182 22.3499C76.2765 23.9347 76.8539 25.6579 77.1541 27.5187C77.3327 28.5167 77.427 29.5446 77.427 30.5914C77.427 31.7148 77.3245 32.823 77.1276 33.9014C76.8201 35.6913 76.2508 37.3688 75.4182 38.9336C75.298 39.1483 75.1717 39.3579 75.0444 39.5648C72.4734 43.9472 67.9545 46.9808 62.1419 46.9882L62.1429 46.9892C62.1383 46.9892 62.1337 46.9881 62.1291 46.9882C62.1263 46.9882 62.1235 46.9892 62.1206 46.9892C61.0095 46.9957 59.8985 46.8421 58.7846 46.5387C55.2546 45.7387 52.5353 43.847 50.0119 41.4029C47.6722 39.1366 45.7902 37.0827 42.8606 31.4873C40.9732 32.8759 39.1408 34.3414 37.3108 35.8113C38.5732 39.0252 39.2415 41.9458 40.2271 46.3325L36.4014 46.3409C35.5427 42.9103 34.5363 40.7102 33.6484 38.7761C31.501 40.442 29.1079 42.1366 26.6163 43.5416C23.0743 45.5389 18.9951 47.1569 14.9719 46.9871C6.13707 46.614 0.000243893 39.6753 0 30.8676C6.20062e-06 29.5582 0.129814 28.2693 0.382235 27.0251C0.701034 25.3523 1.24921 23.7937 2.03115 22.3499C3.28465 19.9664 5.0963 17.9474 7.40687 16.5406C7.4416 16.5184 7.47597 16.4953 7.51092 16.4734C9.84329 14.9936 12.4396 14.2535 15.3 14.2534C17.3289 14.2534 19.1571 14.621 20.784 15.355C22.7745 16.0905 24.6138 17.2708 26.4316 18.9527C29.1728 21.4893 32.4467 25.184 34.8918 30.3532C36.7097 28.9206 38.526 27.4296 40.394 26.055C39.4004 24.0375 38.3291 21.2207 37.3851 18.7465L40.8889 16.7447C41.6699 19.5851 42.6533 21.4608 43.7532 23.6794C47.7281 20.7607 50.6247 18.6823 52.9608 17.2757C54.0612 16.6131 55.0708 16.0791 56.042 15.6595C57.8212 14.7226 59.857 14.2534 62.1493 14.2534ZM11.8015 22.2848C10.4815 23.0682 9.42529 24.1777 8.6332 25.6137C7.88503 27.0502 7.51092 28.705 7.51092 30.5767C7.51095 32.4483 7.88506 34.1022 8.6332 35.5386C9.42534 36.9749 10.4813 38.1066 11.8015 38.9336C15.2162 40.8947 20.4359 40.4882 23.7718 38.607C26.1787 37.2498 28.6335 35.1722 30.7974 33.4605C28.0219 27.6147 25.1236 24.9865 23.0942 23.3812C19.9777 20.9158 15.3035 20.1619 11.8015 22.2848ZM55.9465 22.1273C53.7643 23.4412 50.9009 25.6548 46.786 28.6782C49.2813 32.2655 51.6464 34.7607 53.7093 36.7588C56.9072 39.8561 61.569 41.276 65.6478 38.9336C66.968 38.1066 68.024 36.9749 68.8161 35.5386C69.5643 34.1022 69.9384 32.4483 69.9384 30.5767C69.9384 28.705 69.5643 27.0502 68.8161 25.6137C68.024 24.1777 66.9678 23.0682 65.6478 22.2848C62.9489 20.6488 58.6867 20.4773 55.9465 22.1273Z" fill="#111111"/>
<path fill-rule="evenodd" clip-rule="evenodd" d="M128.671 14.3539C131.092 14.3539 133.226 14.8761 135.075 15.9207C136.357 16.599 137.457 17.4574 138.376 18.4953V15.0067H145.637V46.3469H138.376V42.906C137.484 43.9353 136.406 44.7999 135.141 45.4984C133.249 46.4995 131.092 47.0001 128.671 47.0001C125.811 47.0001 123.214 46.2816 120.881 44.8452C118.593 43.4089 116.767 41.4719 115.402 39.0345C114.082 36.5535 113.422 33.7892 113.422 30.7423C113.422 27.6518 114.082 24.8876 115.402 22.4501C116.767 19.9691 118.593 18.0103 120.881 16.5739C123.214 15.0939 125.811 14.3539 128.671 14.3539ZM129.86 21.1444C128.099 21.1444 126.537 21.558 125.173 22.385C123.853 23.1685 122.796 24.2782 122.004 25.7146C121.256 27.151 120.881 28.8052 120.881 30.6768C120.881 32.5484 121.256 34.2027 122.004 35.6391C122.796 37.0754 123.853 38.2075 125.173 39.0345C126.537 39.8179 128.099 40.2096 129.86 40.2096C132.544 40.2096 134.701 39.317 136.329 37.5325C138.001 35.7478 138.838 33.4625 138.838 30.6768C138.838 28.8052 138.464 27.151 137.715 25.7146C136.967 24.2783 135.911 23.1685 134.547 22.385C133.226 21.5579 131.664 21.1444 129.86 21.1444Z" fill="#111111"/>
<path fill-rule="evenodd" clip-rule="evenodd" d="M190.707 14.3539C193.128 14.3539 195.262 14.876 197.111 15.9207C198.393 16.599 199.493 17.4574 200.411 18.4953V15.0067H207.673V46.3469H200.411V42.906C199.52 43.9353 198.442 44.7999 197.177 45.4984C195.284 46.4995 193.128 47.0001 190.707 47.0001C187.847 47.0001 185.25 46.2816 182.918 44.8452C180.629 43.4089 178.802 41.472 177.438 39.0345C176.118 36.5535 175.458 33.7892 175.458 30.7423C175.458 27.6518 176.118 24.8876 177.438 22.4501C178.802 19.969 180.629 18.0103 182.918 16.5739C185.25 15.0939 187.847 14.3539 190.707 14.3539ZM191.895 21.1444C190.135 21.1444 188.573 21.5579 187.208 22.385C185.888 23.1684 184.832 24.2783 184.04 25.7146C183.292 27.151 182.918 28.8052 182.918 30.6768C182.918 32.5485 183.292 34.2027 184.04 35.6391C184.832 37.0754 185.888 38.2075 187.208 39.0345C188.573 39.8179 190.135 40.2096 191.895 40.2096C194.58 40.2096 196.737 39.317 198.365 37.5325C200.037 35.7479 200.874 33.4625 200.874 30.6768C200.874 28.8052 200.5 27.151 199.751 25.7146C199.003 24.2782 197.947 23.1685 196.582 22.385C195.262 21.5579 193.7 21.1444 191.895 21.1444Z" fill="#111111"/>
<path fill-rule="evenodd" clip-rule="evenodd" d="M222.994 18.4953C223.912 17.4574 225.012 16.599 226.294 15.9207C228.187 14.876 230.321 14.3539 232.698 14.3539C235.559 14.3539 238.133 15.0939 240.422 16.5739C242.754 18.0103 244.581 19.969 245.901 22.4501C247.266 24.8876 247.948 27.6519 247.948 30.7423C247.948 33.7892 247.266 36.5535 245.901 39.0345C244.581 41.472 242.754 43.4089 240.422 44.8452C238.133 46.2816 235.559 47.0001 232.698 47.0001C230.278 47.0001 228.121 46.4995 226.229 45.4984C224.977 44.8075 223.899 43.9542 222.994 42.9396V46.3469H215.732V4.71297H222.994V18.4953ZM231.51 21.1444C229.749 21.1444 228.187 21.5579 226.823 22.385C225.459 23.1685 224.402 24.2782 223.654 25.7146C222.906 27.151 222.532 28.8052 222.532 30.6768C222.532 32.5484 222.906 34.2027 223.654 35.6391C224.402 37.0754 225.459 38.2075 226.823 39.0345C228.187 39.8179 229.75 40.2096 231.51 40.2096C233.27 40.2096 234.811 39.818 236.131 39.0345C237.495 38.2075 238.551 37.0754 239.3 35.6391C240.092 34.2027 240.488 32.5484 240.488 30.6768C240.488 28.8052 240.092 27.151 239.3 25.7146C238.552 24.2783 237.495 23.1685 236.131 22.385C234.811 21.5579 233.27 21.1444 231.51 21.1444Z" fill="#111111"/>
<path fill-rule="evenodd" clip-rule="evenodd" d="M268.352 14.3539C271.3 14.3539 273.897 15.0285 276.141 16.3779C278.43 17.7272 280.212 19.5773 281.488 21.9278C282.809 24.2783 283.469 26.9552 283.469 29.9585C283.469 30.4808 283.425 31.0253 283.337 31.5911C283.293 32.1134 283.205 32.7012 283.073 33.354H259.435C259.633 34.1702 259.919 34.9321 260.298 35.6391C261.09 37.1189 262.212 38.2726 263.664 39.0996C265.117 39.8831 266.789 40.275 268.681 40.2751C270.31 40.2751 271.806 39.992 273.171 39.4262C274.579 38.8604 275.767 38.0332 276.736 36.9451L281.356 41.5807C279.816 43.3653 277.946 44.7149 275.745 45.629C273.545 46.5431 271.212 47.0001 268.748 47.0001C265.579 47.0001 262.718 46.3035 260.166 44.9107C257.657 43.4743 255.655 41.5155 254.158 39.0345C252.706 36.5534 251.98 33.7673 251.98 30.6768C251.98 27.5865 252.706 24.8225 254.158 22.385C255.611 19.9039 257.569 17.9448 260.034 16.5084C262.542 15.072 265.315 14.3539 268.352 14.3539ZM268.22 20.9484C266.371 20.9484 264.765 21.34 263.4 22.1235C262.036 22.907 260.98 24.0171 260.232 25.4535C259.899 26.0723 259.641 26.7473 259.457 27.4778H276.321C276.131 26.5552 275.851 25.7281 275.481 24.9967C274.821 23.6908 273.875 22.6894 272.643 21.9929C271.454 21.2965 269.98 20.9484 268.22 20.9484Z" fill="#111111"/>
<path d="M299.985 14.3539C302.537 14.3539 304.782 14.8109 306.718 15.725C308.699 16.5956 310.349 17.9232 311.669 19.7078L307.048 24.2784C306.124 23.1467 305.068 22.2977 303.88 21.7318C302.691 21.1659 301.327 20.8829 299.787 20.8829C298.334 20.8829 297.212 21.1009 296.42 21.5361C295.628 21.9714 295.232 22.6025 295.232 23.4295C295.232 24.3 295.628 24.9747 296.42 25.4535C297.212 25.9322 298.224 26.3458 299.457 26.694C300.733 27.0422 302.053 27.4342 303.417 27.8695C304.826 28.2612 306.146 28.8269 307.379 29.5668C308.655 30.2633 309.689 31.2209 310.481 32.4397C311.273 33.6149 311.669 35.1605 311.669 37.0756C311.669 40.1225 310.591 42.5384 308.435 44.323C306.278 46.1076 303.351 47.0001 299.655 47.0001C297.894 47.0001 296.2 46.7822 294.572 46.3469C292.943 45.8681 291.447 45.2154 290.082 44.3884C288.718 43.5179 287.53 42.4729 286.518 41.2541L291.139 36.6839C292.239 37.9461 293.493 38.9039 294.902 39.5568C296.354 40.1661 297.982 40.4707 299.787 40.4707C301.415 40.4707 302.647 40.2312 303.484 39.7524C304.32 39.2737 304.738 38.577 304.738 37.663C304.738 36.7055 304.342 35.9657 303.549 35.4434C302.757 34.9211 301.723 34.4856 300.447 34.1374C299.215 33.7456 297.894 33.354 296.486 32.9623C295.122 32.5705 293.801 32.048 292.525 31.3951C291.293 30.6987 290.281 29.7626 289.489 28.5874C288.696 27.4122 288.3 25.8888 288.3 24.0172C288.3 22.015 288.762 20.2954 289.686 18.859C290.655 17.4226 291.997 16.3125 293.713 15.529C295.474 14.7455 297.564 14.3539 299.985 14.3539Z" fill="#111111"/>
<path fill-rule="evenodd" clip-rule="evenodd" d="M363.032 14.3535C365.453 14.3535 367.587 14.876 369.436 15.9207C370.717 16.5984 371.817 17.4557 372.735 18.4925V15.0067L379.998 15.0064V46.3469H372.735V42.9084C371.844 43.9366 370.766 44.8002 369.502 45.4981C368.379 46.092 367.164 46.5097 365.855 46.7512C365.033 46.9031 364.175 46.9848 363.28 46.9977C363.27 46.9978 363.26 46.9982 363.25 46.9984C363.177 46.9993 363.104 47.0001 363.031 47.0001C360.17 47.0001 357.573 46.2816 355.241 44.8452C352.952 43.4089 351.126 41.472 349.761 39.0345C348.441 36.5535 347.781 33.7892 347.781 30.7423C347.781 27.6519 348.441 24.8876 349.761 22.4501C351.126 19.969 352.952 18.0103 355.241 16.5739C356.81 15.5782 358.499 14.9177 360.307 14.5919C361.187 14.4333 362.096 14.3536 363.032 14.3535ZM364.219 21.1444C363.559 21.1444 362.927 21.2022 362.322 21.3184C361.315 21.5123 360.386 21.868 359.534 22.3846C358.214 23.1681 357.157 24.2779 356.365 25.7142C355.617 27.1506 355.243 28.8049 355.242 30.6765C355.243 32.5481 355.617 34.2024 356.365 35.6387C357.157 37.0751 358.214 38.2071 359.534 39.0341C360.898 39.8176 362.46 40.2092 364.221 40.2092C364.521 40.2092 364.814 40.1972 365.101 40.1749C365.175 40.1692 365.248 40.1629 365.321 40.1557C365.604 40.1277 365.881 40.089 366.151 40.0388C367.959 39.702 369.471 38.8665 370.688 37.5325C372.361 35.7479 373.197 33.4625 373.197 30.6768C373.197 28.8052 372.823 27.151 372.075 25.7146C371.327 24.2783 370.27 23.1685 368.906 22.385C367.586 21.5579 366.023 21.1444 364.219 21.1444Z" fill="#111111"/>
<path d="M169.21 14.3539C170.794 14.3539 172.225 14.6369 173.501 15.2028C174.348 15.5783 175.156 16.1074 175.925 16.7895C174.734 18.0795 173.691 19.5372 172.797 21.163C172.549 21.6218 172.318 22.0895 172.105 22.5656C171.587 22.0657 171.018 21.7006 170.398 21.4707C169.694 21.2095 168.88 21.079 167.956 21.079C165.931 21.079 164.259 21.7101 162.939 22.9723C161.618 24.2347 160.958 26.2153 160.958 28.914V46.3469H153.696V15.0067H160.958V18.2628C161.002 18.2 161.045 18.1374 161.09 18.0756C162.895 15.5945 165.601 14.3539 169.21 14.3539Z" fill="#111111"/>
<path d="M324.918 29.7429L337.725 15.0067H346.373L333.022 30.0331L347.033 46.3469H337.791L324.918 30.9807V46.3469H317.656V14.9854H324.918V29.7429Z" fill="#111111"/>
</svg>
