<svg width="273" height="99" viewBox="0 0 273 99" fill="none" xmlns="http://www.w3.org/2000/svg">
<path d="M0.96875 1.94118H13.4006H29.9765V14.4052H13.4006V31.0239H0.96875V14.4052V1.94118Z" fill="#E41F1A"/>
<path d="M67.2733 1.94118V14.4052V31.0239H54.8414V14.4052H38.2656V1.94118L54.8414 1.94118H67.2733Z" fill="#E41F1A"/>
<path d="M0.968752 68.416V55.9519L0.96875 39.3333H13.4006V55.9519H29.9765V68.416H13.4006H0.968752Z" fill="#E41F1A"/>
<path d="M67.2733 68.416H54.8414H38.2656V55.9519H54.8414V39.3333H67.2733V55.9519V68.416Z" fill="#E41F1A"/>
<path d="M183.519 11.3615C183.519 12.6056 183 13.6009 182.222 14.0986C181.444 14.8451 180.147 15.094 178.591 15.094H174.441V7.38006H178.591C180.147 7.38006 181.444 7.62888 182.222 8.37538C183.259 9.37074 183.519 10.3661 183.519 11.3615ZM183.778 28.0335H192.077L186.112 19.8219C187.927 19.0754 189.224 17.8311 190.002 16.5869C191.04 15.0939 191.299 13.6009 191.299 11.6102C191.299 9.61954 190.78 7.87774 189.743 6.38472C188.706 4.89171 187.409 3.89631 185.593 2.90095C183.778 2.15445 181.703 1.65678 179.11 1.65678H166.92V27.7846H174.701V20.8172H178.85L183.778 28.0335ZM147.728 22.3101C146.432 22.3101 145.135 22.0615 144.098 21.3149C143.06 20.8172 142.023 19.8219 141.504 18.5777C140.726 17.3335 140.467 16.0893 140.467 14.5963C140.467 13.1033 140.726 11.8591 141.504 10.6149C142.023 9.37072 143.06 8.62418 144.098 7.87768C145.135 7.38 146.432 6.88235 147.728 6.88235C149.025 6.88235 150.322 7.13117 151.359 7.87768C152.397 8.37536 153.434 9.37072 153.953 10.6149C154.472 11.8591 154.99 13.1033 154.99 14.5963C154.99 16.0893 154.731 17.3335 153.953 18.5777C153.175 19.8219 152.397 20.5683 151.359 21.3149C150.322 22.0615 149.025 22.3101 147.728 22.3101ZM147.728 28.5312C150.581 28.5312 153.175 28.0335 155.509 26.7892C157.843 25.5451 159.659 24.0521 160.955 22.0615C162.252 20.0706 163.03 17.5824 163.03 15.094C163.03 12.6056 162.252 10.1172 160.955 8.12654C159.659 6.13585 157.843 4.39401 155.509 3.39865C153.175 2.15447 150.581 1.65678 147.728 1.65678C144.876 1.65678 142.282 2.15447 139.948 3.39865C137.614 4.64285 135.799 6.13585 134.502 8.12654C133.205 10.1172 132.427 12.6056 132.427 15.094C132.427 17.5824 133.205 20.0706 134.502 22.0615C135.799 24.0521 137.614 25.794 139.948 26.7892C142.282 27.7846 144.876 28.5312 147.728 28.5312ZM122.312 21.5638C121.016 22.0613 119.719 22.3101 118.163 22.3101C116.607 22.3101 115.31 22.0615 114.273 21.3149C113.235 20.5683 112.198 19.8219 111.679 18.5777C111.16 17.3335 110.642 16.0893 110.642 14.5963C110.642 12.3568 111.42 10.6149 112.717 9.12186C114.013 7.87768 116.088 7.1312 118.422 7.1312C121.016 7.1312 123.09 8.12658 124.906 10.1173L129.834 5.88703C128.537 4.39401 126.721 3.14983 124.647 2.40333C122.572 1.65682 120.238 1.15915 117.904 1.15915C115.051 1.15915 112.457 1.65678 110.123 2.90095C107.789 4.14513 105.973 5.63823 104.677 7.6289C103.38 9.6196 102.602 12.1079 102.602 14.5963C102.602 17.3335 103.121 19.5731 104.677 21.5638C105.973 23.5544 107.789 25.2962 110.123 26.2917C112.457 27.2869 115.051 28.0335 117.904 28.0335C119.978 28.0335 122.053 27.7846 123.868 27.2869C125.943 26.7892 127.759 25.794 129.315 24.7985V14.0986H122.572V21.5638H122.312ZM90.6719 28.0335H98.4524V1.90563H90.6719V28.0335Z" fill="#111111"/>
<path d="M264.56 42.377V56.312L252.71 42.377H246.528V68.5049H253.998V54.57L265.849 68.5049H272.031V42.377H264.56ZM233.132 68.5049H240.861V42.377H233.132V68.5049ZM221.54 62.0351C220.25 62.5327 218.963 62.7817 217.418 62.7817C215.873 62.7817 214.583 62.5329 213.553 61.7863C212.523 61.0397 211.493 60.2933 210.978 59.049C210.461 57.8049 209.946 56.5606 209.946 55.0677C209.946 52.8281 210.719 51.0863 212.008 49.5932C213.553 48.3491 215.356 47.6027 217.675 47.6027C220.25 47.6027 222.312 48.5979 224.115 50.5886L229.01 46.3584C227.722 44.8654 225.919 43.6213 223.857 42.8748C221.797 42.1282 219.478 41.6305 217.16 41.6305C214.326 41.6305 211.75 42.1282 209.431 43.3723C207.113 44.6166 205.309 46.1095 204.021 48.1004C202.734 50.0911 201.961 52.5793 201.961 55.0677C201.961 57.5561 202.476 60.0445 204.021 62.0351C205.309 64.0258 207.113 65.7676 209.431 66.7631C211.75 68.0072 214.326 68.5049 217.16 68.5049C219.22 68.5049 221.282 68.256 223.085 67.7583C225.145 67.2606 226.949 66.2654 228.495 65.2699V54.3213H221.797V62.0351H221.54ZM182.382 57.8049L185.989 49.3445L189.595 57.8049H182.382ZM193.717 68.5049H201.704L189.595 42.377H182.124L170.274 68.5049H178.003L180.064 63.5281H191.398L193.717 68.5049ZM149.665 68.5049H170.274V62.5329H157.394V42.377H149.665V68.5049ZM131.632 69.0026C135.754 69.0026 138.846 68.0072 140.906 65.7676C143.225 63.5281 144.255 60.5422 144.255 56.8095V42.377H136.785V56.5606C136.785 60.7908 134.981 62.7817 131.632 62.7817C128.283 62.7817 126.48 60.7908 126.48 56.5606V42.377H118.752V56.8095C118.752 60.791 119.782 63.777 122.101 65.7676C124.419 67.7583 127.768 69.0026 131.632 69.0026ZM108.705 68.5049H117.721L106.129 53.8236L117.206 42.377H108.705L98.1428 53.3259V42.377H90.6719V68.5049H98.1428V62.0351L100.976 59.049L108.705 68.5049Z" fill="#111111"/>
<path d="M194.623 95.9609C193.851 95.9609 193.079 95.6977 192.307 95.4344C191.535 94.9082 191.021 94.3817 190.764 93.8555C190.249 93.0658 190.249 92.2762 190.249 91.4867C190.249 90.697 190.506 89.9075 190.764 89.1179C191.278 88.3284 191.793 87.8019 192.307 87.5387C193.079 87.0123 193.851 87.0125 194.623 87.0125C195.396 87.0125 196.166 87.2755 196.939 87.5387C197.711 88.0652 198.224 88.5914 198.482 89.1179C198.997 89.9075 198.997 90.697 198.997 91.4867C198.997 92.2762 198.739 93.0658 198.482 93.8555C197.969 94.645 197.454 95.1712 196.939 95.4344C196.424 95.9609 195.653 95.9609 194.623 95.9609ZM194.623 98.3297C195.909 98.3297 197.196 98.0665 198.224 97.54C199.254 97.0138 200.027 96.2241 200.798 95.1714C201.313 94.1185 201.828 93.0658 201.828 91.7499C201.828 90.4338 201.57 89.3811 200.798 88.3284C200.284 87.2755 199.254 86.486 198.224 85.9596C197.196 85.4333 195.909 85.1701 194.623 85.1701C193.337 85.1701 192.05 85.4333 191.021 85.9596C189.992 86.486 189.22 87.2755 188.448 88.3284C187.933 89.3811 187.419 90.4338 187.419 91.7499C187.419 93.0658 187.676 94.1185 188.448 95.1714C188.962 96.2241 189.992 97.0138 191.021 97.54C192.307 97.8033 193.337 98.3297 194.623 98.3297ZM175.068 98.0665H177.384V84.6436H175.068V98.0665ZM154.483 95.9609V86.7492H157.571C158.6 86.7492 159.372 87.0125 160.144 87.2757C160.916 87.5387 161.431 88.0652 161.688 88.8546C162.203 89.6443 162.203 90.434 162.203 91.2235C162.203 92.0131 161.945 93.0658 161.688 93.5923C161.173 94.3817 160.659 94.9082 160.144 95.1714C159.372 95.4346 158.6 95.6977 157.571 95.6977H154.483V95.9609ZM151.91 98.0665H157.571C158.858 98.0665 160.144 97.8033 161.173 97.2768C162.203 96.7506 162.974 95.9609 163.746 94.9082C164.261 93.8555 164.518 92.8026 164.518 91.4867C164.518 90.1706 164.261 89.1179 163.746 88.0652C163.232 87.0125 162.203 86.2228 161.173 85.6963C160.144 85.1701 158.858 84.9069 157.571 84.9069H151.91V98.0665ZM135.186 98.3297C136.987 98.3297 138.273 97.8033 139.302 96.7506C140.332 95.6977 140.846 94.1185 140.846 92.2762V84.6436H138.531V92.0131C138.531 94.645 137.501 95.9609 135.186 95.9609C132.87 95.9609 131.841 94.645 131.841 92.0131V84.6436H129.525V92.2762C129.525 94.1185 130.04 95.6977 131.069 96.7506C132.098 97.8033 133.385 98.3297 135.186 98.3297ZM113.572 98.0665H115.888V86.7492H120.262V84.6436H109.198V86.7492H113.572V98.0665ZM95.818 98.3297C96.8473 98.3297 97.8766 98.0665 98.6483 97.8033C99.4203 97.54 99.9349 97.0138 100.45 96.4873C100.964 95.9609 100.964 95.1714 100.964 94.3817C100.964 93.5923 100.707 92.8026 100.192 92.2762C99.6776 91.7499 99.163 91.4867 98.6483 91.2235C98.1339 90.9602 97.3619 90.697 96.3327 90.4338C95.5607 90.1708 95.0461 90.1708 94.7888 89.9075C94.2743 89.6443 94.017 89.6443 93.7597 89.3811C93.5024 89.1179 93.245 88.8546 93.245 88.3284C93.245 87.8019 93.5022 87.2755 94.0168 87.0125C94.5314 86.7492 95.3034 86.486 96.0753 86.486C96.59 86.486 97.3619 86.486 97.8764 86.7492C98.391 87.0125 99.163 87.2755 99.6776 87.5387L100.45 85.6963C99.9349 85.4333 99.163 84.9069 98.391 84.9069C97.6192 84.6436 96.8473 84.6436 96.0753 84.6436C95.0461 84.6436 94.017 84.9069 93.245 85.1701C92.4731 85.4331 91.9585 85.9596 91.4438 86.486C91.1865 87.0123 90.9292 87.8019 90.9292 88.5916C90.9292 89.3811 91.1865 90.1708 91.7011 90.697C92.2158 91.2235 92.7304 91.4867 93.245 91.7499C93.7597 92.0129 94.5314 92.2763 95.5607 92.5394C96.3327 92.8026 96.8473 92.8026 97.1046 93.0658C97.6192 93.3291 97.8764 93.329 98.1337 93.5923C98.391 93.8555 98.6483 94.1185 98.6483 94.645C98.6483 95.1714 98.391 95.6977 97.8764 95.9609C97.3619 96.2241 96.59 96.4873 95.818 96.4873C95.0461 96.4873 94.2743 96.2241 93.5024 95.9609C92.7304 95.6977 91.9585 95.4346 91.4438 94.9082L90.6719 96.7506C91.1865 97.2768 91.9585 97.54 92.9877 97.8033C94.0168 98.0665 94.7888 98.3297 95.818 98.3297Z" fill="#111111"/>
</svg>
