<svg width="692" height="458" viewBox="0 0 692 458" fill="none" xmlns="http://www.w3.org/2000/svg">
<path d="M366.5 307.5C357.167 352.833 339.833 389.167 314.5 416.5C289.167 443.833 250.833 457.5 199.5 457.5C130.167 457.5 79.5 433.5 47.5 385.5C16.1667 338.167 0.5 272.833 0.5 189.5V0.500006L691.5 0.500006V165.5C691.5 250.833 676.833 316.167 647.5 361.5C618.833 407.5 574.833 430.5 515.5 430.5C475.5 430.5 442.833 418.833 417.5 395.5C392.833 372.833 375.833 343.5 366.5 307.5ZM596.5 130.5L406.5 130.5V189.5C406.5 225.5 414.833 252.833 431.5 271.5C448.167 290.167 472.5 299.5 504.5 299.5C537.167 299.5 560.5 289.5 574.5 269.5C589.167 250.167 596.5 219.5 596.5 177.5V130.5ZM97.5 190.5C97.5 233.833 105.5 266.833 121.5 289.5C137.5 312.167 165.167 323.5 204.5 323.5C279.167 323.5 316.5 281.833 316.5 198.5V130.5H97.5V190.5Z" fill="black"/>
</svg>
