<svg width="457" height="691" viewBox="0 0 457 691" fill="none" xmlns="http://www.w3.org/2000/svg">
<path d="M307 325C352.333 334.333 388.667 351.667 416 377C443.333 402.333 457 440.667 457 492C457 561.333 433 612 385 644C337.667 675.333 272.333 691 189 691H5.72205e-06V-4.43459e-05H165C250.333 -4.43459e-05 315.667 14.6666 361 44C407 72.6666 430 116.667 430 176C430 216 418.333 248.667 395 274C372.333 298.667 343 315.667 307 325ZM130 95V285H189C225 285 252.333 276.667 271 260C289.667 243.333 299 219 299 187C299 154.333 289 131 269 117C249.667 102.333 219 95 177 95H130ZM190 594C233.333 594 266.333 586 289 570C311.667 554 323 526.333 323 487C323 412.333 281.333 375 198 375H130V594H190Z" fill="black"/>
</svg>
