<svg width="691" height="481" viewBox="0 0 691 481" fill="none" xmlns="http://www.w3.org/2000/svg">
<path d="M691 161C691 223.667 682 278 664 324C646 370.667 611.667 408.333 561 437C511 466.333 440.333 481 349 481C219.667 481 129 452.333 77 395C25.6667 338.333 0 265.333 0 176V5.72205e-06L691 5.72205e-06V161ZM594 130L97 130V185C97 236.333 115 276 151 304C187 332.667 253 347 349 347C415.667 347 467 339.667 503 325C539 311 563 292 575 268C587.667 244.667 594 216 594 182V130Z" fill="black"/>
</svg>
