<svg width="481" height="691" viewBox="0 0 481 691" fill="none" xmlns="http://www.w3.org/2000/svg">
<path d="M161 -4.43459e-05C223.667 -4.43459e-05 278 8.99996 324 27C370.667 45 408.333 79.3333 437 130C466.333 180 481 250.667 481 342C481 471.333 452.333 562 395 614C338.333 665.333 265.333 691 176 691H5.72205e-06V-4.43459e-05H161ZM130 97V594H185C236.333 594 276 576 304 540C332.667 504 347 438 347 342C347 275.333 339.667 224 325 188C311 152 292 128 268 116C244.667 103.333 216 97 182 97H130Z" fill="black"/>
</svg>
