<svg width="482" height="650" viewBox="0 0 482 650" fill="none" xmlns="http://www.w3.org/2000/svg">
<path d="M476.413 316.754C477.593 314.095 476.584 310.928 473.975 309.442C471.174 307.847 467.592 308.794 465.975 311.557C465.486 312.391 465.237 313.296 465.198 314.196C463.791 313.855 462.341 313.492 460.86 313.111C461.055 312.558 461.166 311.967 461.166 311.349C461.166 308.389 458.733 305.99 455.732 305.99C453.109 305.99 450.921 307.822 450.41 310.26C448.071 309.588 445.778 308.908 443.608 308.242C443.697 308.102 443.787 307.963 443.873 307.817C445.783 304.554 445.894 301.091 444.122 300.082C442.35 299.073 439.365 300.899 437.455 304.162C437.1 304.769 436.807 305.383 436.577 305.986C432.422 304.581 429.42 303.401 428.56 302.741C425.596 300.467 420.985 308.913 416.374 309.563C411.763 310.212 392.661 308.588 392.661 308.588C392.661 308.588 390.685 306.639 391.014 303.391C391.343 300.142 386.732 299.493 382.78 299.817C378.828 300.142 370.923 303.066 369.606 303.066C368.289 303.066 363.019 303.716 363.019 303.716C363.019 303.716 366.313 302.741 360.055 298.193C353.797 293.645 350.833 282.276 345.893 280.002C340.952 277.728 327.778 255.964 325.143 253.365C322.509 250.766 324.814 247.518 320.533 247.843C316.251 248.168 321.521 244.269 317.568 243.295C313.616 242.32 304.394 211.46 302.418 203.989C300.442 196.518 290.428 162.734 286.707 158.186C286.707 158.186 285.621 153.638 282.986 150.715C280.351 147.791 245.44 130.575 244.123 129.275C242.805 127.976 237.865 123.753 234.901 123.103C231.937 122.453 230.29 115.957 230.29 115.957L229.302 110.759C229.302 110.759 235.23 103.288 237.865 96.466C237.865 96.466 238.86 97.1157 240.833 94.517C242.805 91.9182 249.722 79.2494 248.734 74.0519C247.746 68.8544 245.111 66.9053 245.111 66.9053L246.757 55.8607C246.757 55.8607 247.087 43.8415 247.087 38.3192C247.087 32.7969 240.833 19.8032 240.833 19.8032C240.833 19.8032 245.769 18.8287 243.135 15.5803C240.5 12.3319 226.338 0.962334 216.457 0.312627C206.576 -0.337011 186.486 -1.96125 171.994 19.8032C171.994 19.8032 161.455 31.1727 163.761 59.1091C163.761 59.1091 160.467 56.1855 160.467 67.2302C160.467 78.2749 166.066 91.5934 169.36 90.9437C169.36 90.9437 174.3 95.1667 174.3 106.536C174.3 106.536 167.054 104.587 164.419 108.81C161.784 113.033 156.185 109.46 144.987 114.657C133.789 119.855 125.556 119.53 125.556 119.53C125.556 119.53 113.04 117.906 103.818 126.676C103.818 126.676 66.2721 133.498 47.8284 144.868C47.8284 144.868 30.702 153.963 25.4324 154.613C20.1628 155.263 7.31802 168.906 3.36577 173.454C-0.586452 178.002 -0.915843 186.447 5.34189 191.97C11.5996 197.492 23.7856 217.308 23.7856 217.308C23.7856 217.308 7.97668 247.843 7.97668 275.454C7.97668 303.066 12.5876 346.92 58.3677 357.315C58.3677 357.315 72.8592 360.888 86.0333 359.589C99.2074 358.289 111.393 354.716 118.31 352.117C119.59 351.636 121.221 351.044 123.154 350.442C125.62 357.743 129.793 370.569 131.155 377.617C133.131 387.85 137.083 395.159 139.553 402.468C142.023 409.777 131.649 407.828 139.553 415.624C147.458 423.42 134.613 416.111 137.083 422.933C139.553 429.755 143.011 429.755 139.059 449.732C135.107 469.71 135.107 511.615 137.577 533.054C140.047 554.494 139.059 560.829 139.059 560.829L142.157 562.778C142.157 562.778 133.131 592.501 135.107 611.504C137.083 630.507 138.565 649.511 165.737 649.998C192.908 650.485 173.641 568.625 173.641 568.625L173.147 563.752L176.605 562.778C176.605 562.778 181.46 544.262 180.268 538.414C179.075 532.567 181.546 511.128 184.016 504.306C186.486 497.484 191.92 460.939 194.39 447.296C196.861 433.653 196.861 429.755 196.861 429.755C196.861 429.755 200.863 428.78 202.073 422.446C203.283 416.111 200.863 405.391 202.073 397.595C203.283 389.799 201.357 377.13 202.073 371.283C202.25 369.841 202.364 363.887 202.436 355.743C204.215 355.396 205.968 354.936 207.688 354.347L210.012 355.438C210.012 355.438 240.641 374.215 251.913 378.822C263.185 383.43 264.785 390.084 276.465 394.132C288.145 398.181 292.284 398.997 292.284 398.997C292.284 398.997 283.444 403.873 288.613 407.485C293.782 411.098 282.022 406.569 282.329 411.457C282.635 416.345 262.258 435.415 263.257 450.559L254.577 455.409L254.472 458.881C254.472 458.881 238.323 459.116 233.913 465.749C229.502 472.382 235.158 487.964 234.407 498.946C233.656 509.928 236.786 556.759 251.204 554.981C274.917 552.058 266.672 515.785 269.71 506.904C271.286 502.3 272.798 498.366 273.888 495.645C274.902 493.118 275.551 491.637 275.551 491.637C275.551 491.637 297.708 468.229 303.004 463.922C308.299 459.616 334.788 435.12 342.045 427.537C349.302 419.954 361.934 408.545 363.589 400.38C365.244 392.215 368.289 376.155 343.912 357.211C327.96 344.814 306.988 328.571 306.988 328.571L290.712 316.726L330.742 321.907C330.742 321.907 343.916 329.378 345.893 330.028C347.869 330.677 357.42 341.722 361.702 343.022C365.983 344.321 367.63 345.295 371.912 343.671C371.912 343.671 378.499 345.62 382.121 341.397C382.121 341.397 390.355 342.047 391.673 337.499C391.673 337.499 398.589 341.072 400.895 337.824C403.2 334.576 403.2 330.677 403.2 330.677C403.2 330.677 405.176 330.353 408.799 332.302C412.422 334.251 414.727 342.047 418.68 343.022C420.129 343.379 422.912 342.774 426.452 341.93C426.651 343.041 427.089 344.242 427.774 345.412C429.688 348.683 432.773 350.461 434.663 349.385C436.554 348.308 436.534 344.784 434.619 341.514C434.356 341.064 434.07 340.646 433.768 340.257C436.359 339.731 439.1 339.284 441.865 339.073C441.108 339.717 440.664 340.482 440.664 341.305C440.664 343.586 444.037 345.435 448.198 345.435C452.359 345.435 455.732 343.586 455.732 341.305C455.732 340.766 455.538 340.253 455.196 339.781C456.95 339.941 458.581 340.068 460.1 340.158C459.384 341.073 458.953 342.217 458.953 343.463C458.953 346.454 461.411 348.879 464.444 348.879C467.477 348.879 469.935 346.454 469.935 343.463C469.935 342.153 469.463 340.951 468.678 340.014C470.134 339.778 471.266 339.389 472.035 338.799C474.999 336.525 471.376 334.9 474.999 331.327C478.35 328.022 486.193 319.998 476.413 316.754ZM111.802 182.642C115.492 181.772 113.706 197.492 113.706 197.492C113.706 197.492 90.3363 194.315 66.967 194.315C84.3737 182.642 86.7474 188.549 111.802 182.642ZM255.65 287.798L258.117 275.779C258.117 275.779 256.309 266.359 258.117 264.734C259.926 263.11 257.297 254.34 259.457 247.518C261.617 240.696 263.554 228.352 263.554 228.352L266.189 239.397C266.189 239.397 271.13 250.766 271.13 253.69C271.13 256.613 276.399 260.187 276.729 266.034C277.058 271.881 287.268 276.104 289.573 282.276C291.879 288.448 303.077 295.479 303.077 295.479L255.65 287.798Z" fill="black"/>
</svg>
